<?xml version="1.0" encoding="utf-8"?>
<svg version="1.1" xmlns:xlink="http://www.w3.org/1999/xlink" width="22px" height="22px" xmlns="http://www.w3.org/2000/svg">
  <defs>
    <filter x="200px" y="-4px" width="22px" height="22px" filterUnits="userSpaceOnUse" id="filter2">
      <feOffset dx="0" dy="0" in="SourceAlpha" result="shadowOffsetInner" />
      <feGaussianBlur stdDeviation="2" in="shadowOffsetInner" result="shadowGaussian" />
      <feComposite in2="shadowGaussian" operator="atop" in="SourceAlpha" result="shadowComposite" />
      <feColorMatrix type="matrix" values="0 0 0 0 0  0 0 0 0 0  0 0 0 0 0  0 0 0 0.149019607843137 0  " in="shadowComposite" />
    </filter>
    <g id="widget3">
      <path d="M 211 1  C 214.36 1  217 3.64  217 7  C 217 10.36  214.36 13  211 13  C 207.64 13  205 10.36  205 7  C 205 3.64  207.64 1  211 1  Z " fill-rule="nonzero" fill="#108ee9" stroke="none" />
      <path d="M 211 1  C 214.36 1  217 3.64  217 7  C 217 10.36  214.36 13  211 13  C 207.64 13  205 10.36  205 7  C 205 3.64  207.64 1  211 1  Z " stroke-width="2" stroke="#108ee9" fill="none" />
    </g>
  </defs>
  <g transform="matrix(1 0 0 1 -200 4 )">
    <use xlink:href="#widget3" filter="url(#filter2)" />
    <use xlink:href="#widget3" />
  </g>
</svg>