<?xml version="1.0" encoding="utf-8"?>
<svg version="1.1" xmlns:xlink="http://www.w3.org/1999/xlink" width="8px" height="8px" xmlns="http://www.w3.org/2000/svg">
  <g transform="matrix(1 0 0 1 -9 -3 )">
    <path d="M 13 4  C 14.68 4  16 5.32  16 7  C 16 8.68  14.68 10  13 10  C 11.32 10  10 8.68  10 7  C 10 5.32  11.32 4  13 4  Z " fill-rule="nonzero" fill="#108ee9" stroke="none" />
    <path d="M 13 4  C 14.68 4  16 5.32  16 7  C 16 8.68  14.68 10  13 10  C 11.32 10  10 8.68  10 7  C 10 5.32  11.32 4  13 4  Z " stroke-width="2" stroke="#108ee9" fill="none" />
  </g>
</svg>