<?xml version="1.0" encoding="utf-8"?>
<svg version="1.1" xmlns:xlink="http://www.w3.org/1999/xlink" width="8px" height="8px" xmlns="http://www.w3.org/2000/svg">
  <g transform="matrix(1 0 0 1 -406 -3 )">
    <path d="M 410 4  C 411.68 4  413 5.32  413 7  C 413 8.68  411.68 10  410 10  C 408.32 10  407 8.68  407 7  C 407 5.32  408.32 4  410 4  Z " fill-rule="nonzero" fill="#e9e9e9" stroke="none" />
    <path d="M 410 4  C 411.68 4  413 5.32  413 7  C 413 8.68  411.68 10  410 10  C 408.32 10  407 8.68  407 7  C 407 5.32  408.32 4  410 4  Z " stroke-width="2" stroke="#e9e9e9" fill="none" />
  </g>
</svg>