<?xml version="1.0" encoding="utf-8"?>
<svg version="1.1" xmlns:xlink="http://www.w3.org/1999/xlink" width="387px" height="49px" xmlns="http://www.w3.org/2000/svg">
  <g transform="matrix(1 0 0 1 -521 -665 )">
    <path d="M 1.5 0  L 1.5 43  C 0.513297872340433 46.0799999999999  1.94874653098979 47.5  5.11066142460682 47.5  L 380.889338575393 47.5  C 384.05125346901 47.5  385.48670212766 46.0799999999999  385.5 43  L 385.5 0  L 1.5 0  Z " fill-rule="nonzero" fill="#ffffff" stroke="none" transform="matrix(1 0 0 1 521 665 )" />
    <path d="M 1.5 0  L 1.5 43  C 0.513297872340433 46.0799999999999  1.94874653098979 47.5  5.11066142460682 47.5  L 380.889338575393 47.5  C 384.05125346901 47.5  385.48670212766 46.0799999999999  385.5 43  L 385.5 0  " stroke-width="1" stroke="#e4e4e4" fill="none" transform="matrix(1 0 0 1 521 665 )" />
  </g>
</svg>